<svg id="Logo_FIXED" data-name="Logo FIXED" xmlns="http://www.w3.org/2000/svg" viewBox="0 0 400 400"><defs><style>.cls-1{fill:none;}.cls-2{fill:#b1b3bd;}</style></defs><title>twitter_icon</title><rect class="cls-1" width="400" height="400"/><path class="cls-2" d="M125.79,362.53c151,0,233.51-125,233.51-233.5,0-3.55,0-7.09-.24-10.61A167,167,0,0,0,400,75.94a163.65,163.65,0,0,1-47.14,12.91,82.28,82.28,0,0,0,36.08-45.39,164.34,164.34,0,0,1-52.11,19.92A82.14,82.14,0,0,0,197,138.23,233,233,0,0,1,27.84,52.48,82.14,82.14,0,0,0,53.25,162,81.4,81.4,0,0,1,16,151.76v1a82.09,82.09,0,0,0,65.84,80.45,81.86,81.86,0,0,1-37.06,1.41,82.18,82.18,0,0,0,76.68,57,164.65,164.65,0,0,1-101.92,35.2A167.85,167.85,0,0,1,0,325.67a232.37,232.37,0,0,0,125.79,36.8"/></svg>