<?xml version="1.0" standalone="no"?>
<!DOCTYPE svg PUBLIC "-//W3C//DTD SVG 20010904//EN"
 "http://www.w3.org/TR/2001/REC-SVG-20010904/DTD/svg10.dtd">
<svg version="1.0" xmlns="http://www.w3.org/2000/svg"
 width="700.000000pt" height="700.000000pt" viewBox="0 0 700.000000 700.000000"
 preserveAspectRatio="xMidYMid meet">
<metadata>
Created by potrace 1.11, written by Peter Selinger 2001-2013
</metadata>
<g transform="translate(0.000000,700.000000) scale(0.100000,-0.100000)"
fill="#000000" stroke="none">
<path d="M3122 6005 c-78 -50 -146 -95 -151 -101 -6 -5 1 -24 17 -49 109 -161
293 -459 289 -468 -3 -7 -104 -167 -225 -357 -121 -190 -269 -421 -328 -515
-59 -93 -131 -206 -160 -250 -28 -44 -152 -237 -274 -430 -123 -192 -240 -377
-261 -410 -126 -196 -233 -365 -356 -558 -76 -119 -155 -243 -175 -275 -41
-64 -115 -181 -138 -218 -14 -23 -70 -109 -185 -289 -29 -44 -96 -150 -150
-235 -54 -85 -121 -191 -150 -235 -28 -44 -87 -137 -131 -207 l-79 -128 -150
1 c-82 0 -232 0 -332 -1 l-183 0 0 -188 0 -188 3498 1 3497 0 3 187 2 188
-332 2 -332 3 -88 135 c-48 74 -93 145 -100 158 -12 20 -557 875 -865 1357
-67 104 -152 237 -188 295 -62 99 -141 222 -495 777 -80 124 -147 231 -149
237 -2 5 -8 15 -13 21 -10 11 -58 86 -279 433 -381 598 -431 678 -436 689 -2
6 68 124 156 263 l160 251 -72 46 c-40 25 -97 62 -127 82 -65 43 -109 66 -113
60 -2 -2 -53 -82 -113 -176 -60 -95 -111 -173 -114 -173 -3 0 -34 46 -70 103
-35 56 -87 136 -115 178 l-50 75 -143 -91z m583 -1270 c110 -173 211 -333 225
-355 14 -23 109 -172 211 -333 103 -161 296 -463 429 -672 133 -209 284 -445
335 -525 51 -80 208 -327 350 -550 142 -223 277 -434 300 -470 23 -36 101
-159 174 -275 74 -115 142 -222 152 -237 11 -15 19 -30 19 -32 0 -3 -236 -6
-524 -6 l-524 0 -84 118 c-47 64 -156 216 -243 337 -428 594 -1022 1422 -1030
1434 -4 8 -11 28 -15 45 -7 30 -9 28 -47 -54 -54 -114 -96 -205 -150 -325 -48
-107 -61 -135 -176 -385 -16 -36 -40 -87 -52 -115 -13 -27 -84 -183 -158 -345
-74 -162 -145 -317 -157 -345 -13 -27 -42 -90 -64 -140 -23 -49 -55 -120 -71
-157 l-30 -67 -737 -1 c-406 0 -738 2 -738 4 0 3 12 24 28 48 15 24 32 51 37
60 6 9 137 216 293 460 156 244 465 729 688 1078 222 349 423 664 446 700 23
36 109 171 191 300 82 129 169 264 192 300 23 36 113 178 200 315 87 138 164
257 171 265 7 8 19 26 26 40 22 43 123 199 128 199 3 0 95 -141 205 -314z
m229 -2518 c10 -18 21 -34 25 -37 4 -3 58 -79 121 -170 63 -91 130 -187 149
-215 19 -27 99 -142 177 -255 79 -113 150 -214 158 -225 9 -10 16 -23 16 -27
0 -5 -145 -7 -322 -6 l-322 3 -72 360 c-39 198 -79 398 -89 444 -9 47 -19 96
-22 110 -2 14 -11 57 -19 96 -8 38 -17 86 -20 105 -3 19 -12 62 -20 95 -7 33
-14 66 -14 74 0 13 214 -283 254 -352z"/>
</g>
</svg>
